<svg width="34" height="34" viewBox="0 0 34 34" fill="none" xmlns="http://www.w3.org/2000/svg">
<g id="instagram-fill">
<path id="Vector" d="M18.4565 2.83447C20.0508 2.83711 20.8587 2.84555 21.5568 2.86633L21.8318 2.87532C22.1494 2.88661 22.4628 2.90077 22.8406 2.91848C24.3481 2.98814 25.3765 3.22661 26.2796 3.57723C27.2133 3.9373 28.002 4.42369 28.7894 5.21113C29.5756 5.99855 30.0621 6.78952 30.4233 7.72098C30.7727 8.62293 31.0113 9.65238 31.0821 11.1599C31.0989 11.5377 31.1125 11.8511 31.1237 12.1688L31.1327 12.4437C31.1533 13.1418 31.1628 13.9498 31.1658 15.5442L31.1669 16.6005C31.1671 16.7295 31.1671 16.8627 31.1671 17.0001L31.1669 17.3997L31.1661 18.4562C31.1634 20.0505 31.155 20.8585 31.1342 21.5565L31.1252 21.8315C31.114 22.1493 31.0998 22.4626 31.0821 22.8403C31.0124 24.3479 30.7727 25.3761 30.4233 26.2793C30.0632 27.2131 29.5756 28.0018 28.7894 28.7892C28.002 29.5754 27.2098 30.0618 26.2796 30.423C25.3765 30.7725 24.3481 31.0109 22.8406 31.0818C22.4628 31.0986 22.1494 31.1124 21.8318 31.1234L21.5568 31.1323C20.8587 31.1532 20.0508 31.1625 18.4565 31.1656L17.4001 31.1668C17.271 31.1668 17.1378 31.1668 17.0004 31.1668H16.6008L15.5444 31.1658C13.9501 31.1632 13.142 31.1547 12.444 31.1339L12.169 31.125C11.8513 31.1136 11.538 31.0995 11.1602 31.0818C9.65261 31.0122 8.62553 30.7725 7.72123 30.423C6.78858 30.063 5.99879 29.5754 5.21136 28.7892C4.42393 28.0018 3.93873 27.2096 3.57748 26.2793C3.22685 25.3761 2.98956 24.3479 2.91873 22.8403C2.9019 22.4626 2.88817 22.1493 2.87705 21.8315L2.86814 21.5565C2.84741 20.8585 2.83796 20.0505 2.8349 18.4562L2.83472 15.5442C2.83735 13.9498 2.84578 13.1418 2.86656 12.4437L2.87556 12.1688C2.88685 11.8511 2.90102 11.5377 2.91873 11.1599C2.98837 9.65119 3.22685 8.62411 3.57748 7.72098C3.93754 6.78835 4.42393 5.99855 5.21136 5.21113C5.99879 4.42369 6.78977 3.93848 7.72123 3.57723C8.62435 3.22661 9.65143 2.98931 11.1602 2.91848C11.538 2.90167 11.8513 2.88794 12.169 2.87682L12.444 2.86791C13.142 2.84717 13.9501 2.83772 15.5444 2.83466L18.4565 2.83447ZM17.0004 9.91681C13.0863 9.91681 9.91706 13.0895 9.91706 17.0001C9.91706 20.9142 13.0897 24.0834 17.0004 24.0834C20.9145 24.0834 24.0838 20.9108 24.0838 17.0001C24.0838 13.086 20.911 9.91681 17.0004 9.91681ZM17.0004 12.7501C19.3477 12.7501 21.2504 14.6523 21.2504 17.0001C21.2504 19.3474 19.3483 21.2501 17.0004 21.2501C14.6531 21.2501 12.7504 19.3481 12.7504 17.0001C12.7504 14.6528 14.6524 12.7501 17.0004 12.7501ZM24.4379 7.79181C23.4614 7.79181 22.6671 8.58502 22.6671 9.56144C22.6671 10.5379 23.4603 11.3323 24.4379 11.3323C25.4143 11.3323 26.2088 10.5391 26.2088 9.56144C26.2088 8.58502 25.413 7.7906 24.4379 7.79181Z" fill="#0C0C0C"/>
</g>
</svg>
