<svg width="34" height="34" viewBox="0 0 34 34" fill="none" xmlns="http://www.w3.org/2000/svg">
<g id="phone-fill">
<path id="Vector" d="M29.75 23.2617V28.2711C29.75 29.0149 29.175 29.632 28.4332 29.6844C27.8136 29.7282 27.3081 29.75 26.9167 29.75C14.3981 29.75 4.25 19.6018 4.25 7.08333C4.25 6.69192 4.27189 6.1864 4.31566 5.56679C4.36811 4.825 4.98516 4.25 5.7288 4.25H10.7385C11.1021 4.25 11.4067 4.52543 11.4432 4.88722C11.4759 5.21202 11.5064 5.47278 11.5346 5.66953C11.8212 7.67085 12.4065 9.57576 13.244 11.3376C13.3784 11.6204 13.2908 11.9589 13.036 12.1409L9.97836 14.3251C11.8398 18.6732 15.3268 22.1602 19.6749 24.0217L21.8551 20.9694C22.0394 20.7115 22.3819 20.6228 22.6681 20.7587C24.4298 21.5955 26.3346 22.1802 28.3356 22.4661C28.5311 22.4941 28.7902 22.5243 29.1128 22.5569C29.4746 22.5934 29.75 22.898 29.75 23.2617Z" fill="#0C0C0C"/>
</g>
</svg>
